<svg id="_x31_" enable-background="new 0 0 24 24" height="512" viewBox="0 0 24 24" width="512" xmlns="http://www.w3.org/2000/svg"><g><g><g><path d="m.5 17.43c-.276 0-.5-.224-.5-.5v-14.43c0-1.379 1.122-2.5 2.5-2.5h15c.225 0 .458.033.693.099.266.073.422.349.349.614-.073.267-.352.425-.615.349-.149-.041-.293-.062-.427-.062h-15c-.827 0-1.5.673-1.5 1.5v14.43c0 .276-.224.5-.5.5z"/></g></g><g><g><path d="m17.5 24h-10.43c-.276 0-.5-.224-.5-.5s.223-.5.5-.5h10.43c.827 0 1.5-.673 1.5-1.5v-9.63c0-.276.224-.5.5-.5s.5.224.5.5v9.63c0 1.379-1.122 2.5-2.5 2.5z"/></g></g><g><g><path d="m7.071 24c-.13 0-.258-.051-.354-.146l-6.571-6.571c-.143-.143-.186-.358-.108-.545.077-.187.26-.309.462-.309h5.571c.827 0 1.5.673 1.5 1.5v5.571c0 .202-.122.385-.309.462-.061.025-.126.038-.191.038zm-5.364-6.571 4.864 4.864v-4.364c0-.275-.224-.5-.5-.5z"/></g></g></g><g><g><g><path d="m9.772 14.728c-.131 0-.258-.052-.354-.146-.127-.127-.176-.312-.129-.485l1.061-3.889c.072-.266.35-.42.614-.351.267.072.424.348.351.614l-.831 3.044 3.045-.83c.265-.069.542.084.614.351.073.267-.084.542-.351.614l-3.889 1.06c-.043.012-.087.018-.131.018z"/></g></g><g><g><path d="m13.661 13.667c-.128 0-.256-.049-.354-.146l-2.829-2.828c-.094-.094-.146-.221-.146-.354s.053-.26.146-.354l9.546-9.546c.565-.565 1.554-.567 2.121 0l1.414 1.414c.585.585.585 1.536 0 2.121l-9.546 9.546c-.096.098-.224.147-.352.147zm-2.121-3.328 2.122 2.121 9.192-9.192c.195-.195.195-.512 0-.707l-1.414-1.414c-.19-.189-.519-.189-.707 0z"/></g></g></g></svg>