<svg height="512" viewBox="0 0 60 59" width="512" xmlns="http://www.w3.org/2000/svg"><g id="Page-1" fill="none" fill-rule="evenodd"><g id="017---Headset" fill="rgb(0,0,0)" fill-rule="nonzero"><path id="Shape" d="m56 24h-1c-.0065229-1.3084985-.8603881-2.4618235-2.11-2.85-1.155845-11.77578926-11.0576211-20.75324679-22.89-20.75324679s-21.73415499 8.97745753-22.89 20.75324679c-1.24961191.3881765-2.10347712 1.5415015-2.11 2.85h-1c-2.209139 0-4 1.790861-4 4v8c0 2.209139 1.790861 4 4 4h1c0 1.6568542 1.34314575 3 3 3h1v4c0 4.9705627 4.0294373 9 9 9h3.14c.4547821 1.7614029 2.040843 2.9940928 3.86 3h10c2.209139 0 4-1.790861 4-4s-1.790861-4-4-4h-10c-1.819157.0059072-3.4052179 1.2385971-3.86 3h-3.14c-3.8659932 0-7-3.1340068-7-7v-4h1c1.6568542 0 3-1.3431458 3-3v-16c-.001261-1.2232967-.7451501-2.323303-1.88-2.78 1.0210863-8.5481587 8.2710724-14.98366669 16.88-14.98366669s15.8589137 6.43550799 16.88 14.98366669c-1.1348499.456697-1.878739 1.5567033-1.88 2.78v16c0 1.6568542 1.3431458 3 3 3h4c1.6568542 0 3-1.3431458 3-3h1c2.209139 0 4-1.790861 4-4v-8c0-2.209139-1.790861-4-4-4zm-31 29h10c1.1045695 0 2 .8954305 2 2s-.8954305 2-2 2h-10c-1.1045695 0-2-.8954305-2-2s.8954305-2 2-2zm-21-15c-1.1045695 0-2-.8954305-2-2v-8c0-1.1045695.8954305-2 2-2h1v12zm9 2c0 .5522847-.4477153 1-1 1h-4c-.55228475 0-1-.4477153-1-1v-16c0-.5522847.44771525-1 1-1h4c.5522847 0 1 .4477153 1 1zm17-36c-9.709839.01249263-17.8479189 7.3440961-18.87 17h-2c1.1882043-10.6289509 10.1748409-18.66695478 20.87-18.66695478s19.6817957 8.03800388 20.87 18.66695478h-2c-1.0220811-9.6559039-9.160161-16.98750737-18.87-17zm23 36c0 .5522847-.4477153 1-1 1h-4c-.5522847 0-1-.4477153-1-1v-16c0-.5522847.4477153-1 1-1h4c.5522847 0 1 .4477153 1 1zm5-4c0 1.1045695-.8954305 2-2 2h-1v-12h1c1.1045695 0 2 .8954305 2 2z"/></g></g></svg>