<?xml version="1.0" encoding="utf-8"?>
<!-- Generator: Adobe Illustrator 24.0.0, SVG Export Plug-In . SVG Version: 6.00 Build 0)  -->
<svg version="1.1" id="Calque_1" xmlns="http://www.w3.org/2000/svg" xmlns:xlink="http://www.w3.org/1999/xlink" x="0px" y="0px"
	 viewBox="0 0 245 75.5" style="enable-background:new 0 0 245 75.5;" xml:space="preserve">
<style type="text/css">
	.st0{fill-rule:evenodd;clip-rule:evenodd;fill:#F9AF21;}
	.st1{fill-rule:evenodd;clip-rule:evenodd;fill:#E6224C;}
	.st2{fill-rule:evenodd;clip-rule:evenodd;fill:#1FADA0;}
	.st3{fill-rule:evenodd;clip-rule:evenodd;fill:#383F48;}
	.st4{fill-rule:evenodd;clip-rule:evenodd;fill:#FFFFFF;}
	.st5{fill:#E6224C;}
	.st6{fill:#383F48;}
</style>
<g>
	<g>
		<g>
			<path class="st0" d="M29.9,12.2c3.9-3.7,11.4-3.9,15.8-0.2c1.1,0.9,1.1,2.6,0.3,3.7c-0.9,1.1-2.4,1.3-3.6,0.3
				c-2.4-2.1-5-3.5-8.2-3.9C32.8,11.9,31.4,12.2,29.9,12.2z"/>
			<path class="st1" d="M18.9,19.6c-1.1-3.6-0.3-6.7,1.1-9.7c1.8-4.1,5.2-7.1,9.7-9.2c2.9-1.3,5.6-0.6,6.6,1.5c1,2.2-0.1,4.1-3.2,5
				C26,9.2,21.5,13.4,18.9,19.6z"/>
			<path class="st2" d="M21.8,34.8C11,30.9,4.7,19.8,5.5,9.1C5.7,5.6,8,3.5,10.8,3.6c2.6,0.1,4.7,1.9,4.9,4.6c0.1,1-0.1,2.1-0.3,3.1
				c-1.6,8.3,0.3,15.7,5.6,22.2C21.3,33.8,21.4,34.1,21.8,34.8z"/>
			<path class="st3" d="M56.7,27.7c-1.1-4.6-4.4-6.9-8.8-7.8c-2.6-0.5-5.2-0.7-7.8-0.7l0,0l-0.4,0c-0.3,0-0.7,0-1,0L30,19.5
				l-4.6,16.7c1.4,0.7,4.2,1.8,8.3,1.9l0.1-0.4l0.6-2.1l0.5-1.9l0,0l0.1-0.3l0,0c0.7-2.6,1.7-5.5,1.8-5.7c0.2-0.4,0.5-0.7,0.8-0.9
				c1.2-1.2,2.9-1.9,4.7-1.9c3.6,0,6.6,2.9,6.6,6.6c0,2.8-1.8,5.2-4.3,6.1c-0.2,0.1-0.5,0.1-0.7,0.2C38,39.4,32.1,39,27.1,37.9
				c-0.3-0.1-0.7-0.2-1.1-0.3c-2.5-0.6-4.8-1.5-6.7-2.3C14.2,33,10.8,30,10.8,30l0,0c-1.6-1.2-3.4-1.5-5.4-0.4
				c-2.2,1.2-2.9,3.2-2.5,5.5c0.3,1.9,1.7,3.1,3.3,4c4.5,2.7,9.5,4.1,14.7,4.7c0.5,0.1,0.8,0.1,1.2,0.2c3.2,0.4,8,1,12.4,0.9
				c0.7-0.1,1.6-0.1,2.7-0.2c5.6-0.2,11.1-1.2,15.6-5C56.4,36.7,58,32.6,56.7,27.7z"/>
			<path class="st3" d="M25.3,59.7c1-0.1,2.7-0.6,3.4-3.3l2.4-9.1l0.5-1.3c-4.5,0-8.7-0.9-8.7-0.9l-3.9,14.6L25.3,59.7L25.3,59.7z"
				/>
			<path class="st4" d="M6.1,38.2c0,0,6.5,4.8,17.6,5.4C23.7,43.6,12.3,42.3,6.1,38.2z"/>
		</g>
		<g>
			<path class="st5" d="M51.4,63.2c0.4,0,0.8,0.1,1.1,0.2c0.3,0.1,0.6,0.3,0.9,0.5c0.2,0.2,0.4,0.5,0.6,0.8c0.1,0.3,0.2,0.7,0.2,1.1
				c0,1-0.4,1.7-1.2,2c0.5,0.2,0.8,0.5,1.1,0.8c0.3,0.4,0.4,0.8,0.4,1.5c0,0.8-0.3,1.5-0.8,2c-0.5,0.5-1.3,0.7-2.3,0.7h-4.1v-9.5
				L51.4,63.2L51.4,63.2z M48.6,67.3h2.8c0.4,0,0.7-0.1,1-0.4c0.3-0.2,0.4-0.6,0.4-1.1c0-0.5-0.1-0.8-0.4-1c-0.3-0.2-0.6-0.3-1-0.3
				h-2.8L48.6,67.3L48.6,67.3z M48.6,71.4h2.7c0.6,0,1.1-0.1,1.4-0.4c0.3-0.3,0.5-0.6,0.5-1.1c0-0.5-0.2-0.9-0.5-1.2
				c-0.3-0.2-0.8-0.4-1.5-0.4h-2.6L48.6,71.4z"/>
			<path class="st5" d="M59.5,62.7c0.2,0,0.4,0.1,0.5,0.2c0.1,0.1,0.2,0.3,0.2,0.6c0,0.2-0.1,0.4-0.2,0.6c-0.1,0.1-0.3,0.2-0.5,0.2
				c-0.2,0-0.4-0.1-0.5-0.2c-0.1-0.1-0.2-0.3-0.2-0.6c0-0.2,0.1-0.4,0.2-0.6C59.1,62.7,59.3,62.7,59.5,62.7z M60.2,65.4v7.2h-1.3
				v-7.2C58.9,65.4,60.2,65.4,60.2,65.4z"/>
			<path class="st5" d="M66,69.5c0,0.4,0.1,0.7,0.2,1c0.1,0.3,0.3,0.5,0.4,0.7c0.2,0.2,0.4,0.3,0.6,0.4c0.2,0.1,0.5,0.1,0.7,0.1
				c0.4,0,0.7-0.1,0.9-0.2c0.3-0.2,0.5-0.4,0.7-0.6l0.9,0.8c-0.1,0.1-0.2,0.3-0.4,0.4c-0.2,0.1-0.3,0.3-0.5,0.4
				c-0.2,0.1-0.4,0.2-0.7,0.3c-0.3,0.1-0.6,0.1-0.9,0.1c-0.4,0-0.8-0.1-1.2-0.2c-0.4-0.2-0.7-0.4-1-0.7c-0.3-0.3-0.5-0.7-0.7-1.2
				c-0.2-0.5-0.2-1-0.2-1.7c0-0.6,0.1-1.1,0.2-1.6c0.2-0.5,0.4-0.9,0.6-1.2c0.3-0.3,0.6-0.6,1-0.7c0.4-0.2,0.8-0.2,1.2-0.2
				c0.4,0,0.9,0.1,1.2,0.2c0.4,0.2,0.7,0.4,1,0.7c0.3,0.3,0.5,0.7,0.6,1.2c0.2,0.5,0.2,1,0.2,1.6c0,0.1,0,0.2,0,0.3
				c0,0.1,0,0.2,0,0.2L66,69.5L66,69.5z M67.9,66.4c-0.5,0-0.9,0.2-1.2,0.5c-0.3,0.4-0.5,0.9-0.6,1.6h3.7c-0.1-0.7-0.3-1.2-0.6-1.6
				C68.8,66.6,68.4,66.4,67.9,66.4z"/>
			<path class="st5" d="M76.9,65.4v0.9c0.5-0.7,1.3-1.1,2.3-1.1c0.4,0,0.7,0.1,1,0.2c0.3,0.1,0.6,0.3,0.8,0.5
				c0.2,0.2,0.4,0.5,0.5,0.9c0.1,0.4,0.2,0.8,0.2,1.3v4.6h-1.3v-4.4c0-0.6-0.1-1.1-0.4-1.3c-0.3-0.3-0.7-0.4-1.2-0.4
				c-0.4,0-0.7,0.1-1,0.3c-0.3,0.2-0.6,0.5-0.8,1v4.9h-1.3v-7.2L76.9,65.4L76.9,65.4z"/>
			<path class="st5" d="M94.2,65.4v0.9c0.2-0.3,0.5-0.6,0.9-0.8c0.4-0.2,0.8-0.3,1.3-0.3c0.5,0,0.9,0.1,1.3,0.3
				c0.4,0.2,0.6,0.5,0.9,0.9c0.2,0.4,0.4,0.8,0.5,1.2c0.1,0.5,0.2,0.9,0.2,1.4c0,0.5-0.1,0.9-0.2,1.4c-0.1,0.5-0.3,0.9-0.5,1.2
				c-0.2,0.4-0.5,0.7-0.9,0.9c-0.4,0.2-0.8,0.3-1.3,0.3c-0.5,0-0.9-0.1-1.2-0.3c-0.3-0.2-0.6-0.4-0.9-0.7v3.2l-1.3,0.4V65.4H94.2z
				 M96,66.5c-0.4,0-0.8,0.1-1.1,0.3c-0.3,0.2-0.5,0.5-0.7,0.9v2.8c0.2,0.3,0.4,0.6,0.7,0.8c0.3,0.2,0.7,0.3,1.1,0.3
				c0.3,0,0.6-0.1,0.9-0.2c0.2-0.1,0.4-0.3,0.6-0.6c0.1-0.2,0.2-0.5,0.3-0.8c0.1-0.3,0.1-0.6,0.1-1c0-0.3,0-0.7-0.1-1
				c-0.1-0.3-0.2-0.6-0.3-0.8c-0.1-0.2-0.3-0.4-0.6-0.6C96.7,66.5,96.4,66.5,96,66.5z"/>
			<path class="st5" d="M105.1,62.6v10.1h-1.3V63L105.1,62.6z"/>
			<path class="st5" d="M111.3,65.4V70c0,0.6,0.1,1,0.4,1.2c0.3,0.3,0.7,0.4,1.1,0.4c0.4,0,0.7-0.1,1-0.3c0.3-0.2,0.6-0.5,0.8-1
				v-4.9h1.3v7.2h-1.2v-0.9c-0.6,0.7-1.3,1.1-2.3,1.1c-0.4,0-0.7-0.1-1-0.2c-0.3-0.1-0.6-0.3-0.8-0.5c-0.2-0.2-0.4-0.5-0.5-0.8
				c-0.1-0.3-0.2-0.7-0.2-1.2v-4.8L111.3,65.4L111.3,65.4z"/>
			<path class="st5" d="M125.4,67.3c-0.2-0.3-0.5-0.5-0.9-0.6c-0.4-0.2-0.8-0.3-1.3-0.3c-0.5,0-0.8,0.1-1,0.3
				c-0.2,0.2-0.3,0.4-0.3,0.6c0,0.2,0.1,0.3,0.2,0.5c0.1,0.1,0.3,0.2,0.5,0.3c0.2,0.1,0.4,0.1,0.6,0.2c0.2,0.1,0.4,0.1,0.6,0.2
				c0.2,0.1,0.4,0.1,0.7,0.2c0.2,0.1,0.4,0.2,0.6,0.3c0.4,0.2,0.6,0.4,0.8,0.7c0.2,0.3,0.3,0.6,0.3,1c0,0.4-0.1,0.8-0.2,1.1
				c-0.2,0.3-0.4,0.5-0.7,0.7c-0.3,0.2-0.6,0.3-0.9,0.4c-0.3,0.1-0.7,0.1-1.1,0.1c-0.3,0-0.6,0-0.9-0.1c-0.3-0.1-0.6-0.1-0.8-0.2
				c-0.2-0.1-0.5-0.2-0.7-0.3c-0.2-0.1-0.4-0.3-0.5-0.4l0.5-1.1c0.3,0.2,0.6,0.5,1,0.6c0.4,0.2,0.9,0.3,1.4,0.3
				c0.5,0,0.9-0.1,1.2-0.3c0.3-0.2,0.5-0.4,0.5-0.8c0-0.2-0.1-0.4-0.2-0.5c-0.1-0.1-0.3-0.2-0.6-0.4c-0.2-0.1-0.4-0.2-0.6-0.2
				c-0.2-0.1-0.4-0.1-0.6-0.2c-0.2-0.1-0.4-0.1-0.6-0.2c-0.2-0.1-0.4-0.1-0.5-0.2c-0.3-0.2-0.6-0.4-0.7-0.6c-0.2-0.3-0.3-0.6-0.3-1
				c0-0.3,0.1-0.6,0.2-0.9c0.1-0.3,0.3-0.5,0.6-0.7c0.2-0.2,0.5-0.3,0.9-0.4c0.3-0.1,0.7-0.1,1.1-0.1c0.6,0,1.2,0.1,1.6,0.3
				c0.4,0.2,0.8,0.4,1,0.7L125.4,67.3z"/>
			<path class="st5" d="M142.6,65.4V75l-1.3,0.5v-3.5c-0.2,0.3-0.5,0.5-0.9,0.7c-0.4,0.2-0.8,0.3-1.2,0.3c-0.5,0-0.9-0.1-1.3-0.3
				c-0.3-0.2-0.6-0.5-0.8-0.9c-0.2-0.4-0.4-0.8-0.5-1.2c-0.1-0.5-0.1-0.9-0.1-1.4c0-0.5,0-0.9,0.1-1.4c0.1-0.5,0.3-0.9,0.5-1.2
				c0.2-0.4,0.5-0.6,0.8-0.9c0.3-0.2,0.8-0.3,1.3-0.3c0.5,0,0.9,0.1,1.3,0.3c0.4,0.2,0.7,0.5,0.9,0.8v-0.9L142.6,65.4L142.6,65.4z
				 M139.5,71.7c0.4,0,0.8-0.1,1.1-0.3c0.3-0.2,0.5-0.5,0.7-0.8v-2.9c-0.2-0.3-0.4-0.6-0.7-0.8c-0.3-0.2-0.6-0.3-1.1-0.3
				c-0.3,0-0.6,0.1-0.9,0.2c-0.2,0.1-0.4,0.3-0.6,0.6c-0.1,0.2-0.3,0.5-0.3,0.8c-0.1,0.3-0.1,0.6-0.1,1c0,0.3,0,0.7,0.1,1
				c0.1,0.3,0.2,0.6,0.3,0.8c0.1,0.2,0.3,0.4,0.6,0.6C138.9,71.6,139.2,71.7,139.5,71.7z"/>
			<path class="st5" d="M148.8,65.4V70c0,0.6,0.1,1,0.4,1.2c0.3,0.3,0.7,0.4,1.1,0.4c0.4,0,0.7-0.1,1-0.3c0.3-0.2,0.6-0.5,0.8-1
				v-4.9h1.3v7.2h-1.2v-0.9c-0.6,0.7-1.3,1.1-2.3,1.1c-0.4,0-0.7-0.1-1-0.2c-0.3-0.1-0.6-0.3-0.8-0.5c-0.2-0.2-0.4-0.5-0.5-0.8
				c-0.1-0.3-0.2-0.7-0.2-1.2v-4.8L148.8,65.4L148.8,65.4z"/>
			<path class="st5" d="M159.6,62.9l-1.2,3l-0.7-0.2l0.6-3.2L159.6,62.9z"/>
			<path class="st5" d="M165.1,65.4V70c0,0.6,0.1,1,0.4,1.2s0.7,0.4,1.1,0.4c0.4,0,0.7-0.1,1-0.3c0.3-0.2,0.6-0.5,0.8-1v-4.9h1.3
				v7.2h-1.2v-0.9c-0.6,0.7-1.3,1.1-2.3,1.1c-0.4,0-0.7-0.1-1-0.2c-0.3-0.1-0.6-0.3-0.8-0.5c-0.2-0.2-0.4-0.5-0.5-0.8
				c-0.1-0.3-0.2-0.7-0.2-1.2v-4.8L165.1,65.4L165.1,65.4z"/>
			<path class="st5" d="M176,65.4v0.9c0.5-0.7,1.3-1.1,2.3-1.1c0.4,0,0.7,0.1,1,0.2c0.3,0.1,0.6,0.3,0.8,0.5
				c0.2,0.2,0.4,0.5,0.5,0.9c0.1,0.4,0.2,0.8,0.2,1.3v4.6h-1.3v-4.4c0-0.6-0.1-1.1-0.4-1.3c-0.3-0.3-0.7-0.4-1.2-0.4
				c-0.4,0-0.7,0.1-1,0.3c-0.3,0.2-0.6,0.5-0.8,1v4.9h-1.3v-7.2L176,65.4L176,65.4z"/>
			<path class="st5" d="M193.3,65.4v0.9c0.2-0.3,0.5-0.6,0.9-0.8c0.4-0.2,0.8-0.3,1.3-0.3c0.5,0,0.9,0.1,1.3,0.3
				c0.4,0.2,0.6,0.5,0.9,0.9c0.2,0.4,0.4,0.8,0.5,1.2c0.1,0.5,0.2,0.9,0.2,1.4c0,0.5-0.1,0.9-0.2,1.4c-0.1,0.5-0.3,0.9-0.5,1.2
				c-0.2,0.4-0.5,0.7-0.9,0.9c-0.4,0.2-0.8,0.3-1.3,0.3c-0.5,0-0.9-0.1-1.2-0.3c-0.4-0.2-0.6-0.4-0.9-0.7v3.2l-1.3,0.4V65.4H193.3z
				 M195.1,66.5c-0.4,0-0.8,0.1-1.1,0.3c-0.3,0.2-0.5,0.5-0.7,0.9v2.8c0.2,0.3,0.4,0.6,0.7,0.8c0.3,0.2,0.7,0.3,1.1,0.3
				c0.3,0,0.6-0.1,0.9-0.2c0.2-0.1,0.4-0.3,0.6-0.6c0.1-0.2,0.2-0.5,0.3-0.8c0.1-0.3,0.1-0.6,0.1-1c0-0.3,0-0.7-0.1-1
				c-0.1-0.3-0.2-0.6-0.3-0.8c-0.1-0.2-0.3-0.4-0.6-0.6C195.8,66.5,195.5,66.5,195.1,66.5z"/>
			<path class="st5" d="M207,66.9c-0.1-0.1-0.3-0.2-0.5-0.3c-0.2-0.1-0.4-0.1-0.6-0.1c-0.4,0-0.7,0.1-1,0.3c-0.3,0.2-0.6,0.5-0.8,1
				v4.9h-1.3v-7.2h1.2v0.9c0.5-0.7,1.2-1.1,2.1-1.1c0.3,0,0.6,0,0.8,0.1c0.2,0.1,0.4,0.2,0.5,0.3L207,66.9z"/>
			<path class="st5" d="M212.3,62.7c0.2,0,0.4,0.1,0.5,0.2c0.1,0.1,0.2,0.3,0.2,0.6c0,0.2-0.1,0.4-0.2,0.6c-0.1,0.1-0.3,0.2-0.5,0.2
				c-0.2,0-0.4-0.1-0.5-0.2c-0.1-0.1-0.2-0.3-0.2-0.6c0-0.2,0.1-0.4,0.2-0.6C211.9,62.7,212,62.7,212.3,62.7z M212.9,65.4v7.2h-1.3
				v-7.2C211.6,65.4,212.9,65.4,212.9,65.4z"/>
			<path class="st5" d="M223.8,65.4l-2.5,3.3l2.8,3.9h-1.5l-2.1-3l-2.1,3H217l2.8-4l-2.4-3.3h1.4l1.8,2.5l1.8-2.5H223.8z"/>
			<path class="st5" d="M235.2,71.2c0.2,0,0.4,0.1,0.5,0.2c0.1,0.1,0.2,0.3,0.2,0.6c0,0.2-0.1,0.4-0.2,0.6c-0.1,0.1-0.3,0.2-0.5,0.2
				s-0.4-0.1-0.5-0.2c-0.1-0.1-0.2-0.3-0.2-0.6c0-0.2,0.1-0.4,0.2-0.6C234.8,71.3,235,71.2,235.2,71.2z M235.9,63l-0.2,6.8h-1
				l-0.2-6.8L235.9,63z"/>
		</g>
		<path class="st1" d="M74.3,32.9c0.2-0.7,0.1-1.4-0.1-2c-0.1-0.3-0.3-0.6-0.5-0.8c-0.4-0.5-1-0.9-1.6-1c-1.7-0.4-3.4,0.6-3.8,2.3
			c-0.4,1.7,0.6,3.4,2.3,3.8C72.2,35.6,73.9,34.6,74.3,32.9z"/>
		<path class="st3" d="M62.5,8.3"/>
		<path class="st1" d="M63,21.3c0,0,9.8,6.5,11.1,9.6c1.2,2.7-4.4,1-5.6,0.6c-0.1,0-0.2-0.2-0.2-0.3C68.4,30.1,68.4,25.9,63,21.3z"
			/>
	</g>
	<g>
		<path class="st6" d="M61.4,37.9h5.1l-1.1,5.9h-2.9c-0.3,0-0.6,0.1-0.9,0.4c-0.3,0.3-0.4,0.6-0.5,1.1l-2.6,13.2h-5.3l2.9-14.9
			C56.9,40.3,58.7,38.4,61.4,37.9z"/>
		<path class="st6" d="M68.5,37.8h5.4L70,58.1c0,0.1-0.1,0.3-0.1,0.4h-5.5c0.1-0.1,0.1-0.3,0.2-0.4L68.5,37.8z"/>
		<path class="st6" d="M87.8,58.5h-5.4l2.7-13.6c0-0.3,0-0.7-0.2-0.9c-0.2-0.3-0.4-0.4-0.7-0.4h-4l-2.9,14.9H72L75.9,38h6.6v0h3.7
			c1.5,0,2.6,0.7,3.5,2.1c0.9,1.4,1.1,3,0.8,4.9L87.8,58.5z"/>
		<path class="st6" d="M94.8,31.6h5.3c0,0,0,0,0,0s0,0,0,0.1c0,0,0,0.1,0,0.1c0,0.1,0,0.1,0,0.2c0,0.1,0,0.2-0.1,0.3
			s-0.1,0.2-0.1,0.4c0,0.1-0.1,0.3-0.1,0.5c0,0.2-0.1,0.4-0.1,0.6c0,0.2-0.1,0.5-0.2,0.8c-0.1,0.3-0.1,0.6-0.2,0.9
			c-0.1,0.3-0.1,0.7-0.2,1.1c-0.1,0.4-0.2,0.8-0.3,1.3h3.8l-1.1,6h-3.9c0,0,0,0,0,0s0,0,0,0.1s0,0.1,0,0.2c0,0.1,0,0.1,0,0.2
			c0,0.1,0,0.2-0.1,0.3c0,0.1-0.1,0.3-0.1,0.5c0,0.2-0.1,0.4-0.1,0.6s-0.1,0.5-0.1,0.8c-0.1,0.3-0.1,0.6-0.2,0.9
			c-0.1,0.3-0.1,0.7-0.2,1.1c-0.1,0.4-0.2,0.9-0.3,1.3c-0.1,0.5-0.2,1-0.3,1.6c0,0.3,0,0.7,0.2,0.9c0.2,0.3,0.4,0.4,0.7,0.4h2.8
			l-1.1,5.7h-3.6c-1.5,0-2.6-0.7-3.5-2.1c-0.8-1.4-1.1-3-0.8-4.9L94.8,31.6z"/>
		<path class="st6" d="M110.7,37.8c-0.2,0-0.3,0.1-0.4,0.2c-0.1,0.1-0.2,0.2-0.2,0.4c0,0,0,0,0,0.1c0,0,0,0.1,0,0.1s0,0.2,0,0.3
			c0,0.1-0.1,0.3-0.1,0.5c0,0.2-0.1,0.4-0.1,0.7c-0.1,0.3-0.1,0.6-0.2,1c0,0.3,0,0.5,0.1,0.7c0.1,0.2,0.3,0.3,0.5,0.3c0,0,0,0,0,0
			s0.1,0,0.1,0c0,0,0.1,0,0.2,0c0.1,0,0.2,0,0.4,0s0.3,0,0.5,0c0.2,0,0.5,0,0.8,0s0.6,0,1,0s0.8,0,1.3,0c0.5,0,1,0,1.6,0
			c0.6,0,1.2,0,2,0c1.5,0,2.6,0.7,3.5,2.1c0.9,1.4,1.1,3,0.8,4.8c0,0,0,0,0,0.1c0,0,0,0.1,0,0.1s0,0.1,0,0.3c0,0.1-0.1,0.3-0.1,0.4
			s-0.1,0.4-0.1,0.7c0,0.3-0.1,0.6-0.2,0.9c-0.1,0.3-0.2,0.8-0.2,1.2c-0.1,0.5-0.2,1-0.3,1.5c-0.3,1.3-0.8,2.4-1.7,3.2
			c-0.8,0.8-1.8,1.2-2.9,1.2c0,0,0,0-0.1,0s-0.1,0-0.1,0c-0.1,0-0.2,0-0.3,0c-0.1,0-0.3,0-0.4,0c-0.2,0-0.4,0-0.7,0s-0.6,0-0.9,0
			s-0.8,0-1.2,0c-0.5,0-1,0-1.6,0c-0.6,0-1.2,0-1.9,0c-0.7,0-1.5,0-2.4,0c-0.9,0-1.8,0-2.9,0s-2.2,0-3.4,0c0,0,0,0,0-0.1
			c0,0,0-0.1,0-0.2s0-0.2,0.1-0.3c0-0.1,0.1-0.3,0.1-0.5c0-0.2,0.1-0.5,0.1-0.8c0.1-0.3,0.1-0.7,0.2-1.1c0.1-0.4,0.2-0.9,0.3-1.5
			c0.1-0.5,0.2-1.2,0.4-1.8c0,0,0,0,0.1,0c0,0,0.1,0,0.1,0c0.1,0,0.1,0,0.2,0s0.2,0,0.4,0s0.3,0,0.6,0s0.5,0,0.8,0
			c0.3,0,0.7,0,1.1,0s0.9,0,1.4,0c0.5,0,1.1,0,1.7,0c0.6,0,1.3,0,2.1,0s1.6,0,2.5,0c0.9,0,1.9,0,3,0c0.3,0,0.5-0.2,0.6-0.6
			c0,0,0,0,0-0.1c0,0,0-0.1,0-0.1c0-0.1,0-0.2,0.1-0.3c0-0.1,0.1-0.3,0.1-0.5c0-0.2,0.1-0.4,0.1-0.7c0.1-0.3,0.1-0.6,0.2-1
			c0.1-0.2,0.1-0.5-0.1-0.7c-0.1-0.2-0.3-0.3-0.5-0.3c0,0,0,0,0,0s0,0,0,0c0,0-0.1,0-0.1,0s-0.1,0-0.2,0s-0.2,0-0.4,0s-0.3,0-0.5,0
			c-0.2,0-0.5,0-0.8,0c-0.3,0-0.6,0-1,0c-0.4,0-0.8,0-1.3,0c-0.5,0-1,0-1.6,0c-0.6,0-1.3,0-2,0c-1.5,0-2.6-0.7-3.5-2.1
			c-0.9-1.4-1.1-3-0.8-4.8c0,0,0,0,0-0.1c0,0,0-0.1,0-0.1c0-0.1,0-0.2,0.1-0.3c0-0.1,0-0.3,0.1-0.4s0.1-0.4,0.1-0.6
			c0.1-0.3,0.1-0.6,0.2-0.9c0.1-0.4,0.1-0.8,0.2-1.2c0.1-0.5,0.2-1,0.3-1.5c0.9-2.9,2.4-4.4,4.6-4.4c0,0,0,0,0.1,0c0,0,0.1,0,0.1,0
			c0.1,0,0.2,0,0.3,0s0.3,0,0.4,0s0.4,0,0.7,0s0.6,0,0.9,0s0.8,0,1.2,0c0.5,0,1,0,1.6,0s1.2,0,2,0s1.5,0,2.4,0c0.9,0,1.8,0,2.9,0
			s2.2,0,3.4,0c0,0,0,0,0,0.1s0,0.1,0,0.2c0,0.1,0,0.2-0.1,0.3s-0.1,0.3-0.1,0.5c0,0.2-0.1,0.5-0.2,0.8s-0.1,0.7-0.2,1.1
			c-0.1,0.4-0.2,0.9-0.3,1.4c-0.1,0.5-0.2,1.2-0.4,1.8c0,0,0,0,0,0c0,0-0.1,0-0.1,0s-0.1,0-0.2,0s-0.2,0-0.4,0s-0.4,0-0.6,0
			s-0.5,0-0.8,0c-0.3,0-0.7,0-1.1,0s-0.9,0-1.4,0s-1.1,0-1.7,0c-0.6,0-1.3,0-2.1,0c-0.8,0-1.6,0-2.5,0
			C112.8,37.8,111.8,37.8,110.7,37.8z"/>
		<path class="st6" d="M126.2,37.9h5.4l-2.7,13.6c0,0.3,0,0.7,0.2,0.9c0.2,0.3,0.4,0.4,0.7,0.4h3.9l2.8-14.9h5.4L138,58.5h-4.9l0,0
			h-5.2c-1.5,0-2.6-0.7-3.5-2.1c-0.9-1.4-1.1-3-0.8-4.9L126.2,37.9z"/>
		<path class="st6" d="M148.1,37.9h5.1l-1.1,5.9h-2.9c-0.3,0-0.6,0.1-0.9,0.4c-0.3,0.3-0.4,0.6-0.5,1.1l-2.6,13.2h-5.3l2.9-14.9
			C143.6,40.3,145.3,38.4,148.1,37.9z"/>
		<path class="st6" d="M160.2,31.6h10.7c1.5,0,2.8,0.7,3.7,2.1c0.9,1.4,1.3,3,0.9,4.8c-0.4,2-0.8,4.3-1.3,6.9
			c-0.3,1.3-0.8,2.4-1.7,3.2s-1.8,1.3-3,1.3c0,0,0,0-0.1,0c0,0-0.1,0-0.1,0c-0.1,0-0.1,0-0.2,0s-0.2,0-0.4,0c-0.2,0-0.4,0-0.6,0
			s-0.5,0-0.8,0s-0.7,0-1.1,0s-0.9,0-1.4,0s-1.1,0-1.8,0s-1.4,0-2.2,0c-0.8,0-1.7,0-2.6,0c0,0,0,0,0-0.1s0,0,0,0c0,0,0,0,0,0.1
			c0,0,0,0.1,0,0.1c0,0.1,0,0.1,0,0.2c0,0.1,0,0.2-0.1,0.3c0,0.1,0,0.3-0.1,0.4c0,0.2-0.1,0.4-0.1,0.6c0,0.2-0.1,0.4-0.1,0.7
			c0,0.3-0.1,0.6-0.2,0.9c-0.1,0.3-0.1,0.7-0.2,1.1c-0.1,0.4-0.1,0.8-0.2,1.3c-0.1,0.5-0.2,0.9-0.3,1.5s-0.2,1.1-0.3,1.7
			c0,0,0,0-0.1,0c0,0-0.1,0-0.1,0c-0.1,0-0.2,0-0.3,0c-0.1,0-0.3,0-0.5,0s-0.4,0-0.7,0s-0.6,0-1,0c-0.4,0-0.8,0-1.3,0s-1,0-1.6,0
			c0,0,0,0,0-0.1c0,0,0-0.1,0-0.2c0-0.1,0-0.2,0.1-0.3c0-0.1,0.1-0.3,0.1-0.5c0-0.2,0.1-0.4,0.1-0.7c0.1-0.3,0.1-0.6,0.2-1
			s0.2-0.9,0.3-1.4s0.2-1.1,0.3-1.8s0.3-1.4,0.4-2.2c0.2-0.8,0.3-1.7,0.5-2.7c0.2-1,0.4-2.1,0.6-3.2c0.2-1.2,0.5-2.5,0.7-3.8
			s0.6-2.9,0.9-4.5C156.4,33.1,157.9,31.6,160.2,31.6z M159.5,43.6h9.1c0.3,0,0.5-0.2,0.6-0.6l0.9-4.3c0-0.3,0-0.5-0.1-0.7
			c-0.1-0.2-0.3-0.3-0.5-0.3c0,0,0,0,0,0c0,0-0.1,0-0.1,0c-0.1,0-0.1,0-0.2,0c-0.1,0-0.2,0-0.4,0s-0.4,0-0.6,0c-0.2,0-0.5,0-0.8,0
			s-0.7,0-1.1,0s-0.9,0-1.4,0c-0.5,0-1.1,0-1.7,0s-1.3,0-2.1,0c-0.1,0-0.3,0.1-0.4,0.2c-0.1,0.1-0.2,0.3-0.3,0.5L159.5,43.6z"/>
		<path class="st6" d="M179.2,31.6h5.4l-4,19.9c0,0.3,0,0.7,0.2,0.9s0.4,0.4,0.7,0.4h2.9l-1.1,5.7h-3.7c-1.5,0-2.7-0.7-3.5-2.1
			s-1.2-3-0.9-4.9L179.2,31.6z"/>
		<path class="st6" d="M192.4,58.4c-2.7-0.4-4.5-1.8-5.4-4.4s-0.6-5.7,0.7-9.5c2.3-4.7,5.8-6.9,10.5-6.5h7.6l-0.2,1.1h0l-1.3,6.5
			l-2.7,13h-5.3L192.4,58.4z M198.9,45.5L198.9,45.5l0.4-2.2h-2.5c-1.4,0-2.5,0.5-3.3,1.4s-1.4,1.9-1.7,3.1
			c-0.6,3.2,0.3,4.8,2.7,4.8h2.9L198.9,45.5z"/>
		<path class="st6" d="M207.9,42.3c1.8-2.5,4.1-4,6.9-4.4h9.1l-1.3,5.6h-6.9v0h-0.7c-2.3,0-3.8,1.5-4.6,4.7
			c-0.2,1.2-0.1,2.3,0.4,3.3s1.4,1.5,2.7,1.5h7.3l-1.1,5.4h-8.5c-2.3,0-3.9-0.7-4.9-2s-1.4-2.9-1.3-4.8
			C205,47.9,206,44.8,207.9,42.3z"/>
		<path class="st6" d="M226.5,42c2.1-2.5,4.6-3.9,7.6-4.1c0.4,0,0.8,0,1.2,0s0.6,0,0.9,0c0.3,0,0.5,0,0.7,0c0.2,0,0.4,0,0.5,0
			s0.2,0,0.3,0s0.2,0,0.2,0c0,0,0.1,0,0.1,0s0,0,0,0c1.4,0,2.5,0.6,3.3,1.9c0.8,1.3,1.1,2.7,0.8,4.3c-0.1,0.4-0.2,0.7-0.2,1
			c-0.1,0.3-0.1,0.5-0.2,0.7c0,0.2-0.1,0.4-0.1,0.5s-0.1,0.2-0.1,0.3c0,0.1,0,0.1,0,0.2c0,0,0,0,0,0.1c-0.3,1.3-0.8,2.3-1.6,3.1
			c-0.8,0.8-1.8,1.2-2.9,1.2c-0.5,0-1,0-1.5,0c-0.4,0-0.8,0-1.1,0s-0.6,0-0.8,0c-0.2,0-0.4,0-0.6,0c-0.2,0-0.3,0-0.4,0
			c-0.1,0-0.2,0-0.3,0s-0.1,0-0.1,0c0,0,0,0-0.1,0c-0.7-0.1-1.1-0.6-1.3-1.4c-0.2-0.8-0.1-1.6,0.3-2.4c0.4-0.8,1.1-1.3,2.2-1.6
			c0.4,0,0.7,0,1,0s0.5,0,0.8,0c0.2,0,0.4,0,0.5,0s0.3,0,0.4,0c0.1,0,0.2,0,0.2,0s0.1,0,0.1,0s0,0,0,0c0.1-0.3,0.1-0.6,0.2-0.8
			c0-0.2,0.1-0.4,0.1-0.6c0-0.2,0.1-0.3,0.1-0.4c0-0.1,0-0.2,0-0.3c0-0.1,0-0.1,0-0.1c0,0,0,0,0,0c-0.4,0-0.8,0-1.1,0
			c-0.3,0-0.6,0-0.8,0c-0.2,0-0.4,0-0.6,0c-0.2,0-0.3,0-0.4,0c-0.1,0-0.2,0-0.2,0c-0.1,0-0.1,0-0.1,0c0,0,0,0-0.1,0
			c-1.2,0-2.2,0.4-3,1.1c-0.8,0.8-1.4,2-1.8,3.6c-0.2,1.2,0,2.3,0.5,3.3c0.5,1,1.4,1.5,2.8,1.5c0.7,0,1.4,0,2,0c0.6,0,1.2,0,1.7,0
			s1,0,1.4,0s0.7,0,1.1,0c0.3,0,0.6,0,0.8,0c0.2,0,0.4,0,0.6,0s0.3,0,0.4,0c0.1,0,0.2,0,0.2,0s0.1,0,0.1,0s0,0,0,0s0,0,0,0
			c-0.1,0.6-0.2,1.1-0.3,1.6c-0.1,0.5-0.2,0.9-0.3,1.2s-0.1,0.7-0.2,0.9c-0.1,0.3-0.1,0.5-0.1,0.7s-0.1,0.3-0.1,0.4
			c0,0.1,0,0.2-0.1,0.3c0,0.1,0,0.1,0,0.1c0,0,0,0,0,0.1c-0.9,0-1.6,0-2.4,0c-0.7,0-1.3,0-1.9,0s-1.1,0-1.5,0s-0.9,0-1.2,0
			c-0.3,0-0.6,0-0.9,0s-0.5,0-0.6,0c-0.2,0-0.3,0-0.4,0s-0.2,0-0.3,0s-0.1,0-0.1,0c0,0,0,0-0.1,0c-2.2,0-3.9-0.7-4.8-2
			c-1-1.3-1.5-2.9-1.5-4.8C223.3,47.8,224.4,44.6,226.5,42z"/>
	</g>
</g>
</svg>
