<?xml version="1.0" encoding="utf-8"?>
<!-- Generator: Adobe Illustrator 16.0.0, SVG Export Plug-In . SVG Version: 6.00 Build 0)  -->
<!DOCTYPE svg PUBLIC "-//W3C//DTD SVG 1.1//EN" "http://www.w3.org/Graphics/SVG/1.1/DTD/svg11.dtd">
<svg version="1.1" id="Calque_1" xmlns="http://www.w3.org/2000/svg" xmlns:xlink="http://www.w3.org/1999/xlink" x="0px" y="0px"
	 width="245.001px" height="75.535px" viewBox="0 0 245.001 75.535" enable-background="new 0 0 245.001 75.535"
	 xml:space="preserve">
<g>
	<g>
		<path fill-rule="evenodd" clip-rule="evenodd" fill="#F9AF21" d="M27.756,12.298c3.855-3.749,11.412-3.948,15.81-0.219
			c1.09,0.926,1.148,2.602,0.258,3.673c-0.936,1.126-2.417,1.336-3.609,0.295c-2.395-2.089-5.047-3.526-8.247-3.912
			C30.581,11.97,29.221,12.303,27.756,12.298z"/>
		<path fill-rule="evenodd" clip-rule="evenodd" fill="#E6224C" d="M16.758,19.678c-1.116-3.581-0.29-6.714,1.072-9.729
			c1.84-4.091,5.154-7.143,9.679-9.188c2.852-1.291,5.583-0.637,6.614,1.527c1.042,2.192-0.104,4.085-3.215,4.977
			C23.848,9.292,19.321,13.459,16.758,19.678z"/>
		<path fill-rule="evenodd" clip-rule="evenodd" fill="#1FADA0" d="M19.646,34.895C8.791,31.01,2.466,19.877,3.285,9.172
			c0.261-3.425,2.508-5.53,5.338-5.461c2.616,0.06,4.684,1.901,4.908,4.563c0.087,1.005-0.127,2.053-0.322,3.063
			c-1.589,8.295,0.3,15.698,5.623,22.242C19.065,33.867,19.228,34.212,19.646,34.895z"/>
		<path fill-rule="evenodd" clip-rule="evenodd" fill="#383F48" d="M54.547,27.82c-1.14-4.566-4.414-6.859-8.786-7.78
			c-2.592-0.543-5.189-0.736-7.789-0.727l0.008-0.01l-0.361,0.006c-0.342,0.008-0.685,0.019-1.025,0.028l-8.787,0.224l-4.557,16.69
			c1.396,0.688,4.192,1.764,8.301,1.933l0.119-0.445l0.574-2.142l0.521-1.94l0,0l0.079-0.296l0.003-0.002
			c0.706-2.646,1.7-5.508,1.77-5.716c0.242-0.354,0.51-0.671,0.811-0.928c1.198-1.194,2.853-1.934,4.684-1.934
			c3.648,0,6.606,2.938,6.606,6.559c0,2.832-1.809,5.228-4.333,6.149c-0.233,0.074-0.473,0.148-0.723,0.224
			c-5.831,1.8-11.713,1.406-16.721,0.257c-0.327-0.085-0.678-0.171-1.076-0.26c-2.521-0.649-4.789-1.47-6.676-2.269
			c-5.227-2.37-8.625-5.322-8.625-5.322L8.56,30.123c-1.61-1.215-3.448-1.459-5.397-0.397c-2.2,1.193-2.866,3.185-2.521,5.522
			c0.284,1.937,1.68,3.096,3.26,4.046c4.516,2.737,9.472,4.136,14.676,4.733c0.451,0.051,0.841,0.113,1.176,0.209
			c3.186,0.433,8.023,0.964,12.435,0.932c0.712-0.07,1.59-0.107,2.697-0.155c5.639-0.241,11.121-1.199,15.598-5.024
			C54.243,36.778,55.765,32.7,54.547,27.82z"/>
		<path fill-rule="evenodd" clip-rule="evenodd" fill="#383F48" d="M23.157,59.802c0.965-0.093,2.699-0.646,3.419-3.32l2.446-9.123
			l0.486-1.314c-4.496,0.05-8.709-0.888-8.709-0.888l-3.927,14.646H23.157z"/>
		<path fill-rule="evenodd" clip-rule="evenodd" fill="#FFFFFF" d="M3.878,38.289c0,0,6.457,4.766,17.639,5.375
			C21.517,43.664,10.078,42.363,3.878,38.289z"/>
	</g>
	<g>
		<path fill="#383F48" d="M53.933,40.654c-0.794,0.395-1.588,0.976-2.387,1.75c-0.797,0.771-1.392,1.838-1.781,3.197l-4.041,14.095
			h4.828l3.849-13.428c0.17-0.313,0.395-0.601,0.682-0.864c0.242-0.207,0.554-0.402,0.933-0.588
			c0.382-0.183,0.836-0.275,1.356-0.275h3.69l1.362-4.749h-5.496C55.879,39.895,54.878,40.183,53.933,40.654z"/>
		<polygon fill="#383F48" points="59.035,59.696 63.822,59.696 69.531,39.792 64.739,39.792 		"/>
		<path fill="#383F48" d="M71.096,33.432c-0.105-0.135-0.321-0.202-0.641-0.216c-0.325-0.016-0.802-0.021-1.428-0.021
			c-0.628,0-1.111,0.006-1.44,0.021c-0.332,0.014-0.588,0.081-0.769,0.216c-0.181,0.128-0.319,0.338-0.417,0.626
			c-0.094,0.29-0.224,0.722-0.393,1.297c-0.161,0.576-0.28,1.005-0.346,1.295c-0.074,0.289-0.054,0.499,0.052,0.63
			c0.107,0.131,0.322,0.202,0.646,0.215c0.322,0.013,0.798,0.02,1.423,0.02c0.631,0,1.112-0.007,1.442-0.02
			c0.333-0.013,0.586-0.084,0.768-0.215c0.181-0.131,0.321-0.341,0.416-0.63c0.096-0.29,0.226-0.719,0.393-1.295
			c0.163-0.575,0.28-1.007,0.349-1.297C71.223,33.77,71.204,33.56,71.096,33.432z"/>
		<path fill="#383F48" d="M86.808,42.383c-0.403-0.786-0.913-1.387-1.523-1.804c-0.614-0.421-1.218-0.729-1.817-0.925
			c-0.599-0.196-1.134-0.307-1.611-0.334c-0.479-0.025-0.754-0.04-0.834-0.04c-0.106,0-0.396,0.015-0.872,0.04
			c-0.482,0.027-1.077,0.138-1.785,0.334c-0.714,0.195-1.495,0.504-2.347,0.925c-0.852,0.417-1.705,1.018-2.56,1.804
			c-0.853,0.784-1.653,1.775-2.4,2.966c-0.749,1.189-1.372,2.66-1.873,4.415l-2.849,9.932h4.789l2.849-9.932
			c0.164-0.574,0.385-1.166,0.66-1.767c0.279-0.604,0.634-1.152,1.067-1.65c0.428-0.496,0.952-0.908,1.571-1.235
			c0.615-0.327,1.357-0.492,2.221-0.492c0.862,0,1.508,0.165,1.94,0.492c0.428,0.327,0.717,0.739,0.862,1.235
			c0.146,0.498,0.183,1.047,0.115,1.65c-0.067,0.601-0.184,1.192-0.347,1.767l-2.848,9.932h4.789l2.849-9.932
			c0.502-1.755,0.72-3.226,0.655-4.415C87.444,44.159,87.21,43.167,86.808,42.383z"/>
		<path fill="#383F48" d="M93.943,54.671c-0.277-0.182-0.475-0.383-0.597-0.588c-0.136-0.263-0.196-0.551-0.184-0.864l2.512-8.754
			h4.512l1.339-4.674h-4.512l1.528-5.34h-4.788l-5.573,19.436c-0.391,1.358-0.413,2.426-0.072,3.198s0.795,1.354,1.363,1.748
			c0.676,0.472,1.509,0.759,2.5,0.862h4.789l1.365-4.749h-2.986C94.617,54.947,94.216,54.854,93.943,54.671z"/>
		<path fill="#383F48" stroke="#373E47" stroke-width="0.5" stroke-miterlimit="10" d="M117.758,27.105h-9.127l-9.346,32.591h4.585
			l3.353-11.688h4.542c7.439,0,12.157-3.483,14.155-10.452S125.198,27.105,117.758,27.105z M118.193,42.356
			c-1.184,0.739-2.89,1.109-5.126,1.109h-4.543l3.392-11.818h4.542c2.175,0,3.656,0.368,4.445,1.107
			c0.94,0.923,1.085,2.52,0.433,4.801C120.671,39.868,119.625,41.468,118.193,42.356z"/>
		<path fill="#383F48" d="M141.614,42.089c-0.486-0.902-1.236-1.598-2.251-2.082c-1.012-0.483-2.346-0.727-3.991-0.727
			c-1.768,0.054-3.438,0.445-5.011,1.177c-0.662,0.315-1.351,0.722-2.054,1.217c-0.707,0.499-1.381,1.119-2.027,1.865
			c-0.646,0.75-1.248,1.631-1.801,2.651c-0.555,1.022-1.028,2.212-1.415,3.573c-0.393,1.359-0.609,2.552-0.654,3.572
			c-0.043,1.021,0.029,1.898,0.227,2.629c0.196,0.733,0.479,1.346,0.852,1.827c0.372,0.485,0.785,0.885,1.246,1.198
			c1.053,0.705,2.389,1.072,4.006,1.098c0.824-0.05,1.658-0.221,2.5-0.51c0.729-0.262,1.518-0.681,2.36-1.256
			c0.371-0.254,0.732-0.567,1.09-0.919l-0.659,2.292h4.672l2.836-9.895c0.475-1.648,0.728-3.121,0.758-4.414
			C142.326,44.091,142.102,42.992,141.614,42.089z M134.992,53.551c-0.497,0.589-1.097,1.083-1.798,1.474
			c-0.699,0.394-1.539,0.588-2.504,0.588c-0.971,0-1.691-0.194-2.167-0.588c-0.476-0.391-0.788-0.885-0.933-1.474
			c-0.146-0.587-0.175-1.223-0.082-1.902c0.092-0.68,0.217-1.308,0.382-1.885c0.165-0.574,0.399-1.204,0.698-1.886
			c0.3-0.678,0.692-1.315,1.172-1.902c0.485-0.589,1.076-1.082,1.777-1.473c0.702-0.393,1.536-0.591,2.507-0.591
			c1.021,0,1.784,0.171,2.284,0.511c0.507,0.341,0.828,0.794,0.968,1.356c0.141,0.564,0.154,1.19,0.05,1.882
			c-0.108,0.695-0.263,1.396-0.47,2.103c-0.16,0.577-0.395,1.205-0.693,1.885C135.885,52.329,135.486,52.964,134.992,53.551z"/>
		<path fill="#383F48" d="M160.583,49.253c-0.483-0.418-1.063-0.741-1.746-0.96c-0.68-0.226-1.377-0.385-2.082-0.472
			c-0.707-0.095-1.378-0.147-2.017-0.16c-0.639-0.012-1.141-0.017-1.507-0.017c-0.995,0-1.764-0.145-2.31-0.432
			c-0.549-0.287-0.721-0.774-0.524-1.454c0.199-0.706,0.688-1.265,1.457-1.668c0.771-0.404,1.694-0.607,2.769-0.607
			c1.438,0,2.371,0.24,2.793,0.723c0.425,0.485,0.519,1.148,0.276,1.984h4.792c0.477-1.571,0.511-2.813,0.104-3.73
			c-0.405-0.916-1.003-1.61-1.798-2.082c-0.791-0.468-1.658-0.771-2.588-0.902c-0.931-0.128-1.683-0.195-2.26-0.195
			c-1.099,0-2.186,0.133-3.254,0.395c-1.069,0.26-2.065,0.653-2.989,1.175c-0.919,0.526-1.736,1.199-2.439,2.023
			c-0.711,0.824-1.224,1.788-1.537,2.886c-0.285,0.998-0.297,1.859-0.034,2.592c0.258,0.732,0.698,1.341,1.319,1.824
			c0.619,0.485,1.368,0.844,2.244,1.079c0.872,0.236,1.775,0.368,2.713,0.395c1.222,0.025,2.163,0.103,2.818,0.235
			c0.656,0.131,1.119,0.296,1.391,0.492c0.271,0.194,0.413,0.413,0.422,0.646c0.01,0.234-0.02,0.472-0.085,0.706
			c-0.059,0.209-0.159,0.432-0.289,0.666c-0.131,0.239-0.389,0.47-0.767,0.689c-0.377,0.22-0.918,0.399-1.626,0.528
			c-0.702,0.133-1.668,0.185-2.888,0.158c-0.989-0.025-1.739-0.153-2.25-0.373c-0.512-0.222-0.866-0.492-1.065-0.807
			c-0.198-0.312-0.289-0.631-0.273-0.959c0.017-0.328,0.056-0.609,0.124-0.843h-4.79c-0.352,1.228-0.44,2.268-0.268,3.122
			c0.173,0.848,0.505,1.542,0.995,2.077c0.485,0.537,1.073,0.948,1.766,1.239c0.689,0.285,1.362,0.493,2.016,0.626
			c0.656,0.131,1.248,0.203,1.764,0.217c0.521,0.011,0.862,0.018,1.018,0.018c0.861,0,1.873-0.065,3.021-0.196
			c1.15-0.131,2.276-0.431,3.377-0.901c1.104-0.472,2.118-1.158,3.046-2.062c0.927-0.902,1.608-2.114,2.044-3.632
			c0.28-0.969,0.32-1.781,0.127-2.435C161.402,50.208,161.063,49.671,160.583,49.253z"/>
		<path fill="#383F48" d="M208.154,41.46c-0.5-0.59-1.122-1.027-1.862-1.314c-0.741-0.289-1.505-0.434-2.291-0.434
			c-0.706,0-1.354,0.073-1.946,0.217c-0.59,0.142-1.131,0.332-1.616,0.57c-0.486,0.235-0.925,0.497-1.326,0.786
			c-0.394,0.287-0.748,0.558-1.06,0.822l2.555-8.913h-4.788l-7.599,26.501h4.828l3.03-10.833c0.181-0.63,0.387-1.213,0.616-1.752
			c0.233-0.533,0.544-1.011,0.942-1.429c0.396-0.42,0.874-0.746,1.438-0.983c0.564-0.233,1.268-0.354,2.104-0.354
			c0.812,0,1.423,0.121,1.843,0.354c0.415,0.237,0.688,0.563,0.815,0.983c0.131,0.418,0.156,0.896,0.083,1.429
			c-0.076,0.539-0.203,1.122-0.384,1.752l-3.106,10.833h4.787l3.712-12.957c0.342-1.176,0.42-2.205,0.238-3.079
			C208.989,42.783,208.653,42.049,208.154,41.46z"/>
		<path fill="#383F48" d="M229.762,47.213c0.139-1.022,0.141-1.919,0.01-2.69c-0.133-0.771-0.348-1.442-0.646-2.002
			c-0.297-0.564-0.66-1.032-1.084-1.414c-0.43-0.379-0.869-0.686-1.326-0.924c-1.102-0.548-2.363-0.849-3.787-0.902
			c-1.767,0.054-3.438,0.445-5.005,1.177c-0.67,0.315-1.358,0.722-2.061,1.217c-0.707,0.499-1.382,1.119-2.026,1.865
			c-0.647,0.75-1.248,1.631-1.802,2.651c-0.553,1.022-1.026,2.212-1.415,3.573c-0.39,1.359-0.6,2.552-0.632,3.572
			c-0.032,1.021,0.063,1.898,0.285,2.629c0.223,0.733,0.545,1.346,0.968,1.827c0.425,0.485,0.879,0.885,1.366,1.198
			c1.156,0.705,2.611,1.072,4.356,1.098c1.335,0,2.672-0.234,4.01-0.706c0.557-0.21,1.146-0.479,1.763-0.805
			c0.617-0.328,1.226-0.74,1.825-1.235c0.602-0.499,1.191-1.088,1.764-1.769c0.576-0.68,1.1-1.48,1.57-2.392h-5.104
			c-0.481,0.678-1.101,1.279-1.852,1.803c-0.755,0.524-1.662,0.786-2.737,0.786c-1.073,0-1.836-0.262-2.286-0.786
			c-0.454-0.523-0.725-1.125-0.819-1.803c-0.055-0.448-0.058-0.898-0.004-1.36c0.052-0.453,0.116-0.909,0.191-1.352h13.742
			l0.203-0.706c0.133-0.471,0.244-0.918,0.324-1.335C229.633,48.009,229.704,47.605,229.762,47.213z M216.494,47.213
			c0.226-0.419,0.502-0.839,0.831-1.258c0.33-0.419,0.713-0.797,1.152-1.14c0.433-0.337,0.919-0.609,1.442-0.805
			c0.531-0.195,1.111-0.293,1.739-0.293c0.626,0,1.151,0.098,1.563,0.293c0.415,0.195,0.745,0.468,0.988,0.805
			c0.24,0.343,0.404,0.721,0.48,1.14c0.072,0.419,0.117,0.839,0.129,1.258H216.494z"/>
		<path fill="#383F48" d="M240.061,39.792c-1.055,0.104-2.053,0.392-2.999,0.862c-0.793,0.395-1.59,0.976-2.385,1.75
			c-0.796,0.771-1.39,1.838-1.783,3.197l-4.042,14.095h4.833l3.849-13.428c0.169-0.313,0.395-0.601,0.677-0.864
			c0.244-0.207,0.557-0.402,0.936-0.588c0.383-0.183,0.83-0.275,1.355-0.275h3.691l1.364-4.749H240.061z"/>
	</g>
	<path fill="#383F48" d="M184.833,54.945c0.807-0.88,1.612-1.953,2.396-3.185c0.568-0.899,1.104-1.936,1.593-3.087h-5.194
		c-0.742,1.363-1.688,2.594-2.811,3.669c-1.445,1.372-3.249,2.071-5.365,2.071c-1.586,0-2.799-0.397-3.611-1.184
		c-0.791-0.763-1.314-1.741-1.554-2.899c-0.235-1.1-0.282-2.308-0.143-3.582c0.143-1.213,0.339-2.351,0.59-3.374
		c0.248-1.019,0.605-2.154,1.057-3.367c0.485-1.273,1.118-2.479,1.897-3.591c0.808-1.163,1.809-2.134,2.969-2.896
		c1.196-0.787,2.604-1.187,4.189-1.187c1.057,0,1.949,0.185,2.648,0.543c0.728,0.376,1.272,0.865,1.677,1.501
		c0.401,0.622,0.671,1.344,0.806,2.149c0.08,0.474,0.139,0.962,0.175,1.483h5.27c0.063-1.111,0.03-2.127-0.095-3.033
		c-0.182-1.226-0.463-2.31-0.841-3.22c-0.38-0.903-0.841-1.65-1.372-2.213c-0.548-0.592-1.14-1.082-1.752-1.464
		c-1.457-0.867-3.178-1.355-5.104-1.438c-2.336,0.083-4.625,0.716-6.747,1.875c-0.927,0.491-1.862,1.134-2.793,1.917
		c-0.922,0.781-1.83,1.762-2.692,2.915c-0.899,1.194-1.728,2.615-2.465,4.219c-0.758,1.64-1.415,3.589-1.957,5.806
		c-0.54,2.213-0.835,4.165-0.879,5.805c-0.047,1.607,0.084,3.019,0.384,4.191c0.288,1.133,0.717,2.084,1.274,2.825
		c0.58,0.781,1.201,1.423,1.848,1.908c1.546,1.11,3.535,1.697,5.904,1.734c1.977-0.001,3.925-0.442,5.796-1.308
		c0.788-0.371,1.618-0.852,2.463-1.432C183.197,56.553,184.015,55.831,184.833,54.945z"/>
	<g>
		<path fill="#383F48" d="M49.189,63.311c0.411,0,0.789,0.052,1.13,0.158c0.344,0.103,0.636,0.262,0.883,0.479
			c0.246,0.214,0.438,0.479,0.574,0.794c0.139,0.313,0.207,0.677,0.207,1.088c0,0.985-0.392,1.662-1.178,2.027
			c0.458,0.184,0.82,0.457,1.089,0.822c0.27,0.366,0.404,0.85,0.404,1.453c0,0.848-0.267,1.503-0.802,1.964
			c-0.533,0.461-1.302,0.691-2.307,0.691h-4.11v-9.477H49.189z M46.451,67.378h2.78c0.401,0,0.742-0.119,1.021-0.356
			c0.277-0.237,0.417-0.592,0.417-1.068c0-0.466-0.134-0.809-0.405-1.034c-0.268-0.224-0.613-0.334-1.032-0.334h-2.78V67.378z
			 M46.451,71.526h2.725c0.603,0,1.054-0.123,1.356-0.372c0.302-0.254,0.452-0.62,0.452-1.104c0-0.521-0.168-0.906-0.508-1.151
			c-0.336-0.246-0.821-0.372-1.451-0.372h-2.574V71.526z"/>
		<path fill="#383F48" d="M57.31,62.778c0.22,0,0.401,0.068,0.542,0.211c0.142,0.142,0.212,0.331,0.212,0.567
			c0,0.229-0.07,0.414-0.212,0.562c-0.141,0.146-0.321,0.22-0.542,0.22c-0.219,0-0.397-0.074-0.533-0.22
			c-0.136-0.147-0.207-0.333-0.207-0.562c0-0.236,0.07-0.426,0.207-0.567C56.913,62.846,57.091,62.778,57.31,62.778z M57.967,65.544
			v7.243h-1.301v-7.243H57.967z"/>
		<path fill="#383F48" d="M63.857,69.612c0.039,0.372,0.114,0.696,0.235,0.972c0.119,0.272,0.267,0.499,0.445,0.677
			c0.179,0.179,0.379,0.312,0.602,0.397c0.224,0.088,0.455,0.131,0.691,0.131c0.357,0,0.67-0.083,0.938-0.247
			c0.27-0.165,0.487-0.364,0.651-0.602l0.862,0.751c-0.099,0.138-0.224,0.281-0.376,0.435c-0.15,0.149-0.329,0.285-0.533,0.409
			c-0.207,0.123-0.441,0.225-0.706,0.309c-0.265,0.081-0.561,0.123-0.891,0.123c-0.428,0-0.835-0.08-1.218-0.24
			c-0.383-0.158-0.718-0.399-1-0.718c-0.283-0.32-0.507-0.719-0.672-1.2c-0.164-0.479-0.246-1.037-0.246-1.677
			c0-0.604,0.076-1.139,0.227-1.609c0.15-0.469,0.36-0.864,0.629-1.186c0.27-0.317,0.591-0.56,0.966-0.726
			c0.375-0.163,0.785-0.247,1.233-0.247c0.447,0,0.857,0.084,1.232,0.247c0.376,0.166,0.698,0.408,0.972,0.726
			c0.274,0.321,0.487,0.717,0.638,1.186c0.15,0.471,0.225,1.005,0.225,1.609c0,0.092-0.001,0.177-0.006,0.252
			c-0.003,0.079-0.011,0.156-0.019,0.229H63.857z M65.708,66.543c-0.503,0-0.917,0.181-1.247,0.539
			c-0.329,0.36-0.529,0.881-0.604,1.556h3.685c-0.071-0.693-0.272-1.217-0.601-1.568C66.612,66.717,66.2,66.543,65.708,66.543z"/>
		<path fill="#383F48" d="M74.666,65.544v0.89c0.547-0.714,1.312-1.07,2.287-1.07c0.366,0,0.702,0.053,1.006,0.159
			c0.308,0.104,0.57,0.271,0.788,0.5c0.219,0.229,0.389,0.522,0.508,0.883c0.118,0.361,0.178,0.792,0.178,1.292v4.59h-1.301v-4.449
			c0-0.632-0.145-1.079-0.434-1.344c-0.286-0.265-0.67-0.397-1.156-0.397c-0.383,0-0.729,0.09-1.041,0.275
			c-0.311,0.182-0.567,0.515-0.768,0.998v4.917h-1.3v-7.243H74.666z"/>
		<path fill="#383F48" d="M91.976,65.544v0.917c0.239-0.321,0.538-0.583,0.898-0.788c0.361-0.207,0.786-0.31,1.279-0.31
			c0.503,0,0.93,0.111,1.281,0.329c0.353,0.219,0.637,0.509,0.855,0.863c0.221,0.354,0.379,0.764,0.479,1.218
			c0.1,0.458,0.152,0.918,0.152,1.384c0,0.468-0.053,0.929-0.152,1.385c-0.101,0.456-0.258,0.865-0.479,1.225
			c-0.218,0.361-0.503,0.651-0.855,0.87c-0.352,0.22-0.778,0.329-1.281,0.329c-0.473,0-0.884-0.096-1.231-0.288
			c-0.348-0.19-0.639-0.433-0.878-0.728v3.248l-1.301,0.438V65.544H91.976z M93.838,66.556c-0.437,0-0.8,0.11-1.088,0.337
			c-0.286,0.222-0.523,0.51-0.706,0.855v2.849c0.183,0.338,0.421,0.615,0.713,0.837c0.291,0.218,0.657,0.328,1.094,0.328
			c0.339,0,0.624-0.072,0.856-0.213c0.233-0.142,0.423-0.334,0.57-0.576c0.145-0.241,0.249-0.519,0.307-0.828
			c0.06-0.311,0.09-0.64,0.09-0.987c0-0.336-0.03-0.663-0.09-0.978c-0.059-0.315-0.163-0.595-0.307-0.836
			c-0.147-0.242-0.336-0.434-0.57-0.577C94.476,66.628,94.184,66.556,93.838,66.556z"/>
		<path fill="#383F48" d="M102.891,62.667v10.12h-1.301v-9.682L102.891,62.667z"/>
		<path fill="#383F48" d="M109.068,65.544v4.56c0,0.576,0.148,0.991,0.445,1.246c0.296,0.255,0.678,0.383,1.145,0.383
			c0.383,0,0.728-0.091,1.033-0.273c0.307-0.184,0.565-0.52,0.773-1.014v-4.901h1.302v7.243h-1.232v-0.903
			c-0.557,0.721-1.321,1.082-2.288,1.082c-0.366,0-0.701-0.051-1.008-0.159c-0.305-0.104-0.567-0.264-0.786-0.479
			c-0.221-0.214-0.389-0.487-0.508-0.821c-0.12-0.333-0.178-0.728-0.178-1.186v-4.777H109.068z"/>
		<path fill="#383F48" d="M123.19,67.446c-0.236-0.255-0.548-0.472-0.937-0.649c-0.387-0.179-0.814-0.267-1.281-0.267
			c-0.465,0-0.808,0.086-1.026,0.259c-0.218,0.174-0.329,0.385-0.329,0.631c0,0.183,0.053,0.334,0.165,0.451
			c0.11,0.119,0.261,0.22,0.451,0.303c0.164,0.072,0.351,0.136,0.555,0.19c0.207,0.057,0.419,0.114,0.638,0.179
			c0.218,0.064,0.443,0.132,0.672,0.207c0.226,0.072,0.441,0.158,0.644,0.258c0.372,0.183,0.649,0.404,0.827,0.666
			c0.179,0.258,0.267,0.598,0.267,1.021c0,0.428-0.081,0.788-0.245,1.073c-0.164,0.288-0.383,0.521-0.658,0.699
			c-0.272,0.176-0.583,0.306-0.93,0.383c-0.347,0.078-0.7,0.117-1.055,0.117c-0.329,0-0.641-0.027-0.938-0.082
			c-0.297-0.056-0.569-0.131-0.815-0.227c-0.248-0.096-0.467-0.204-0.664-0.329c-0.196-0.122-0.363-0.251-0.501-0.391l0.507-1.095
			c0.265,0.246,0.607,0.462,1.029,0.644c0.419,0.183,0.876,0.275,1.369,0.275c0.466,0,0.853-0.093,1.157-0.275
			c0.306-0.182,0.459-0.447,0.459-0.793c0-0.201-0.063-0.364-0.185-0.494c-0.125-0.127-0.322-0.246-0.595-0.355
			c-0.193-0.084-0.396-0.155-0.618-0.219c-0.219-0.065-0.435-0.127-0.649-0.185c-0.214-0.06-0.421-0.123-0.618-0.188
			c-0.197-0.063-0.371-0.132-0.527-0.205c-0.311-0.156-0.56-0.359-0.746-0.617c-0.188-0.253-0.281-0.583-0.281-0.985
			c0-0.329,0.068-0.621,0.204-0.881c0.139-0.262,0.325-0.48,0.562-0.659c0.238-0.178,0.523-0.312,0.856-0.404
			c0.334-0.09,0.691-0.138,1.076-0.138c0.619,0,1.154,0.101,1.601,0.303c0.448,0.201,0.795,0.42,1.042,0.657L123.19,67.446z"/>
		<path fill="#383F48" d="M140.417,65.544v9.517l-1.3,0.454v-3.548c-0.238,0.292-0.533,0.53-0.884,0.718
			c-0.353,0.188-0.766,0.281-1.24,0.281c-0.501,0-0.926-0.109-1.273-0.329c-0.346-0.219-0.63-0.509-0.849-0.87
			c-0.22-0.359-0.377-0.769-0.473-1.225c-0.097-0.456-0.145-0.917-0.145-1.385c0-0.466,0.048-0.926,0.145-1.384
			c0.096-0.454,0.253-0.863,0.473-1.218c0.219-0.354,0.503-0.645,0.849-0.863c0.348-0.218,0.772-0.329,1.273-0.329
			c0.502,0,0.938,0.104,1.302,0.316c0.365,0.21,0.665,0.475,0.904,0.793v-0.929H140.417z M137.323,71.762
			c0.431,0,0.789-0.11,1.076-0.328c0.285-0.222,0.526-0.499,0.719-0.837v-2.878c-0.192-0.346-0.434-0.628-0.719-0.841
			c-0.287-0.214-0.646-0.322-1.076-0.322c-0.344,0-0.636,0.072-0.868,0.211c-0.234,0.144-0.424,0.335-0.569,0.577
			c-0.146,0.241-0.25,0.521-0.309,0.836c-0.06,0.314-0.089,0.642-0.089,0.978c0,0.348,0.029,0.677,0.089,0.987
			c0.059,0.31,0.162,0.587,0.309,0.828c0.146,0.242,0.335,0.435,0.569,0.576C136.687,71.69,136.979,71.762,137.323,71.762z"/>
		<path fill="#383F48" d="M146.595,65.544v4.56c0,0.576,0.148,0.991,0.446,1.246c0.296,0.255,0.676,0.383,1.144,0.383
			c0.383,0,0.729-0.091,1.033-0.273c0.306-0.184,0.564-0.52,0.774-1.014v-4.901h1.301v7.243h-1.232v-0.903
			c-0.556,0.721-1.319,1.082-2.287,1.082c-0.366,0-0.701-0.051-1.008-0.159c-0.305-0.104-0.567-0.264-0.787-0.479
			c-0.22-0.214-0.389-0.487-0.507-0.821c-0.118-0.333-0.177-0.728-0.177-1.186v-4.777H146.595z"/>
		<path fill="#383F48" d="M157.416,62.996l-1.191,3.027l-0.739-0.246l0.643-3.179L157.416,62.996z"/>
		<path fill="#383F48" d="M162.907,65.544v4.56c0,0.576,0.149,0.991,0.446,1.246s0.677,0.383,1.144,0.383
			c0.384,0,0.729-0.091,1.032-0.273c0.309-0.184,0.566-0.52,0.774-1.014v-4.901h1.301v7.243h-1.229v-0.903
			c-0.559,0.721-1.322,1.082-2.287,1.082c-0.368,0-0.702-0.051-1.008-0.159c-0.307-0.104-0.568-0.264-0.787-0.479
			c-0.22-0.214-0.39-0.487-0.507-0.821c-0.122-0.333-0.181-0.728-0.181-1.186v-4.777H162.907z"/>
		<path fill="#383F48" d="M173.769,65.544v0.89c0.547-0.714,1.312-1.07,2.287-1.07c0.366,0,0.702,0.053,1.005,0.159
			c0.309,0.104,0.571,0.271,0.789,0.5c0.219,0.229,0.39,0.522,0.508,0.883c0.119,0.361,0.179,0.792,0.179,1.292v4.59h-1.301v-4.449
			c0-0.632-0.145-1.079-0.434-1.344c-0.287-0.265-0.672-0.397-1.156-0.397c-0.384,0-0.729,0.09-1.041,0.275
			c-0.311,0.182-0.567,0.515-0.767,0.998v4.917h-1.302v-7.243H173.769z"/>
		<path fill="#383F48" d="M191.081,65.544v0.917c0.238-0.321,0.536-0.583,0.897-0.788c0.361-0.207,0.786-0.31,1.278-0.31
			c0.505,0,0.931,0.111,1.281,0.329c0.354,0.219,0.638,0.509,0.855,0.863c0.221,0.354,0.378,0.764,0.48,1.218
			c0.1,0.458,0.151,0.918,0.151,1.384c0,0.468-0.052,0.929-0.151,1.385c-0.103,0.456-0.26,0.865-0.48,1.225
			c-0.218,0.361-0.502,0.651-0.855,0.87c-0.351,0.22-0.776,0.329-1.281,0.329c-0.474,0-0.884-0.096-1.229-0.288
			c-0.35-0.19-0.641-0.433-0.878-0.728v3.248l-1.303,0.438V65.544H191.081z M192.942,66.556c-0.438,0-0.8,0.11-1.088,0.337
			c-0.287,0.222-0.522,0.51-0.705,0.855v2.849c0.183,0.338,0.42,0.615,0.712,0.837c0.291,0.218,0.656,0.328,1.095,0.328
			c0.338,0,0.625-0.072,0.856-0.213c0.231-0.142,0.423-0.334,0.57-0.576c0.145-0.241,0.247-0.519,0.306-0.828
			c0.061-0.311,0.092-0.64,0.092-0.987c0-0.336-0.031-0.663-0.092-0.978c-0.059-0.315-0.161-0.595-0.306-0.836
			c-0.147-0.242-0.339-0.434-0.57-0.577C193.581,66.628,193.29,66.556,192.942,66.556z"/>
		<path fill="#383F48" d="M204.804,66.954c-0.126-0.128-0.277-0.219-0.452-0.273c-0.171-0.054-0.367-0.083-0.586-0.083
			c-0.376,0-0.712,0.09-1.009,0.266c-0.298,0.18-0.55,0.524-0.761,1.037v4.888h-1.3v-7.243h1.233v0.876
			c0.519-0.704,1.215-1.057,2.082-1.057c0.318,0,0.579,0.045,0.779,0.132c0.201,0.086,0.365,0.187,0.494,0.309L204.804,66.954z"/>
		<path fill="#383F48" d="M210.065,62.778c0.221,0,0.401,0.068,0.54,0.211c0.144,0.142,0.213,0.331,0.213,0.567
			c0,0.229-0.069,0.414-0.213,0.562c-0.139,0.146-0.319,0.22-0.54,0.22c-0.219,0-0.397-0.074-0.534-0.22
			c-0.138-0.147-0.205-0.333-0.205-0.562c0-0.236,0.067-0.426,0.205-0.567C209.667,62.846,209.846,62.778,210.065,62.778z
			 M210.721,65.544v7.243h-1.3v-7.243H210.721z"/>
		<path fill="#383F48" d="M221.625,65.544l-2.452,3.341l2.808,3.902h-1.466l-2.137-3.04l-2.123,3.04h-1.45l2.818-3.984l-2.355-3.259
			h1.412l1.767,2.465l1.754-2.465H221.625z"/>
		<path fill="#383F48" d="M232.992,71.324c0.22,0,0.398,0.068,0.54,0.212c0.143,0.143,0.213,0.33,0.213,0.567
			c0,0.229-0.07,0.416-0.213,0.563c-0.142,0.145-0.32,0.219-0.54,0.219s-0.397-0.074-0.534-0.219
			c-0.138-0.146-0.207-0.334-0.207-0.563c0-0.237,0.069-0.425,0.207-0.567C232.594,71.392,232.772,71.324,232.992,71.324z
			 M233.717,63.146l-0.233,6.822h-0.973l-0.233-6.822H233.717z"/>
	</g>
</g>
</svg>
