<svg height="1063pt" viewBox="-111 -33 1063 1063.7534" width="1063pt" xmlns="http://www.w3.org/2000/svg"><path d="m696.222656 601.320312 133.742188 231.644532c9.941406 17.265625-.117188 39.074218-19.410156 43.015625l-112.9375 23.128906-76.457032 86.222656c-13.082031 14.765625-37.269531 12.9375-47.554687-5.722656l-134.71875-233.332031c-16.476563 6.707031-34.742188 7.886718-52.570313 3.6875l-133.207031 230.660156c-9.832031 16.96875-33.707031 19.710938-47.007813 4.707031l-76.441406-86.222656-112.945312-23.128906c-19.296875-3.941407-29.359375-25.75-19.40625-43.015625l124.8125-216.1875c-18.757813-39.835938-7.636719-90.78125-20.015625-120.675782-13.875-33.492187-73.867188-62.273437-72.953125-121.292968.949218-61.144532 61.132812-92.078125 76.496094-129.152344 14.050781-33.929688-8.125-96.46875 34.257812-137.5625 43.882812-42.535156 108.414062-21.859375 145.539062-37.238281 33.488282-13.871094 62.265626-73.863281 121.289063-72.949219 61.144531.953125 92.070313 61.136719 129.148437 76.488281 33.941407 14.0625 96.476563-8.109375 137.5625 34.265625 42.550782 43.890625 21.863282 108.421875 37.238282 145.542969 13.871094 33.492187 73.863281 62.265625 72.949218 121.285156-.949218 61.152344-61.121093 92.070313-76.488281 129.160157-9.371093 22.621093-2.476562 63.878906-10.921875 96.671874zm-265.769531-327.78125c-11.152344-16.292968-35.621094-17.027343-47.578125-.761718l-25.636719 34.792968-45.074219 16.652344c-2.855468.90625-5.625 2.269532-8.195312 4.109375-13.117188 9.398438-16.128906 27.640625-6.738281 40.75l25.3125 35.347657 1.976562 49.203124c.761719 19.082032 19.492188 32.425782 37.875 26.59375l41.226563-13.085937 47.703125 13.382813c18.351562 5.136718 36.863281-8.511719 36.96875-27.925782l.289062-43.238281 27.410157-41.09375c10.589843-15.824219 3.355468-37.710937-15.039063-43.8125l-41.117187-13.667969zm-23.230469 64.503907c-15.910156 21.589843-14.851562 18.777343-40.210937 28.140625 14.796875 20.660156 13.0625 18.582031 14.183593 47.011718 25.617188-8.136718 23.011719-6.488281 49.136719.867188.179688-26.964844 1.886719-25.1875 16.066407-46.421875-25.570313-8.496094-23.378907-9.574219-39.175782-29.597656zm-.828125-174.65625c-116.949219 0-211.765625 94.816406-211.765625 211.757812 0 116.949219 94.816406 211.769531 211.765625 211.769531s211.757813-94.820312 211.757813-211.769531c0-116.941406-94.816406-211.757812-211.757813-211.757812zm108.414063 103.347656c-59.867188-59.875-156.964844-59.875-216.824219 0-59.871094 59.871094-59.871094 156.949219 0 216.835937 59.871094 59.871094 156.957031 59.871094 216.824219 0 59.875-59.886718 59.875-156.964843 0-216.835937zm-28.472656 445.347656 118.023437 204.433594 55.582031-62.6875c4.085938-4.890625 9.789063-8.472656 16.519532-9.847656l82.871093-16.957031-100.300781-173.738282c-41.984375 27.375-98.746094 12.507813-131.691406 26.152344-13.28125 5.503906-28.027344 20.421875-41.003906 32.644531zm-151.09375 9.734375c-17.820313-14.871094-39.832032-38.25-58.339844-45.914062-26.757813-11.085938-74.984375.578125-112.273438-16.371094l-96.699218 167.488281 82.875 16.960938c6.726562 1.367187 12.429687 4.957031 16.515624 9.847656l55.535157 62.636719zm121.335937-634.238281c-17.328125-15.71875-34.410156-31.203125-50.527344-31.449219-26.3125-.410156-54.050781 50.214844-98.464843 68.617188-46.871094 19.402344-105.058594 3.820312-127.039063 25.121094-18.898437 18.335937-2.78125 73.882812-21.023437 117.9375-19.429688 46.882812-71.683594 77.121093-72.152344 107.6875-.410156 26.320312 50.210937 54.050781 68.609375 98.464843 19.414062 46.867188 3.824219 105.058594 25.132812 127.042969 18.324219 18.902344 73.878907 2.773438 117.929688 21.03125 46.890625 19.417969 77.125 71.671875 107.691406 72.140625 26.3125.414063 54.046875-50.203125 98.464844-68.613281 46.871093-19.410156 105.054687-3.816406 127.039062-25.132813 18.914063-18.324219 2.78125-73.878906 21.027344-117.929687 19.421875-46.886719 71.679687-77.121094 72.148437-107.6875.410157-26.316406-50.210937-54.039063-68.609374-98.46875-19.414063-46.871094-3.828126-105.054688-25.132813-127.035156-18.328125-18.902344-73.882813-2.785157-117.929687-21.027344-22.613282-9.367188-39.976563-25.117188-57.164063-40.699219zm0 0" fill-rule="evenodd"/></svg>